# xmcd
#
# Track frame offsets: 
#        150
#        12174
#        29012
#        41207
#        54006
#        69463
#        84884
#        97500
#        113242
#        121929
#        134512
#        151393
#        164778
#
# Disc length: 2275 seconds
#
# Revision: 0
# Processed by: cddbd v1.5.2PL0 Copyright (c) Steve Scherf et al.
# Submitted via: ExactAudioCopy v1.3
#
DISCID=a108e10d
DTITLE=Chelsea Williams - Boomerang
DYEAR=2017
DGENRE=Americana
TTITLE0=Angeles Crest
TTITLE1=Lonely Girl
TTITLE2=Fool's Gold
TTITLE3=Anything Worth Saving
TTITLE4=Rush
TTITLE5=Six Bottles of Wine
TTITLE6=Little Halo
TTITLE7=Out of Sight Out of Mind
TTITLE8=Toyota Song
TTITLE9=Don't Want to Die Alone
TTITLE10=Dreamcatcher
TTITLE11=Boomerang
TTITLE12=Angeles Crest Postlude
EXTD=
EXTT0=
EXTT1=
EXTT2=
EXTT3=
EXTT4=
EXTT5=
EXTT6=
EXTT7=
EXTT8=
EXTT9=
EXTT10=
EXTT11=
EXTT12=
PLAYORDER=
